<svg xmlns="http://www.w3.org/2000/svg" viewBox="0 0 700 700"><path d="m322.91 288.88-92.215 108.54a13.678 13.678 0 0 1-10.449 4.832h-108.54c-7.57 0-13.707-6.148-13.707-13.707v-217.08c0-7.57 6.137-13.707 13.707-13.707h108.54c4.02 0 7.84 1.766 10.449 4.832l92.215 108.54a13.713 13.713 0 0 1-.004 17.75zm137.92-17.75-92.223-108.54a13.709 13.709 0 0 0-10.445-4.832h-100.09l83.121 97.832c12.023 14.145 12.023 34.688 0 48.828l-83.121 97.832h100.09a13.67 13.67 0 0 0 10.445-4.832l92.219-108.54a13.718 13.718 0 0 0 0-17.75zm137.92 0-92.223-108.54a13.715 13.715 0 0 0-10.445-4.832h-100.09l83.121 97.832c12.02 14.145 12.02 34.688 0 48.828l-83.121 97.832h100.09a13.67 13.67 0 0 0 10.445-4.832l92.223-108.54a13.732 13.732 0 0 0-.004-17.75z" style="fill:#f06" transform="matrix(1.34176 0 0 1.34176 -119.618 -25.7)"/></svg> 